<?xml version="1.0" standalone="no"?>
<!DOCTYPE svg PUBLIC "-//W3C//DTD SVG 20010904//EN"
 "http://www.w3.org/TR/2001/REC-SVG-20010904/DTD/svg10.dtd">
<svg version="1.0" xmlns="http://www.w3.org/2000/svg"
 width="93.000000pt" height="93.000000pt" viewBox="0 0 93.000000 93.000000"
 preserveAspectRatio="xMidYMid meet">
<metadata>
Created by potrace 1.11, written by Peter Selinger 2001-2013
</metadata>
<g transform="translate(0.000000,93.000000) scale(0.100000,-0.100000)"
fill="#000000" stroke="none">
<path d="M370 824 c-107 -39 -200 -133 -265 -268 -56 -116 -85 -225 -92 -349
l-6 -97 137 0 c136 0 136 0 131 22 -2 13 -12 77 -20 142 -9 66 -18 124 -21
128 -3 4 -14 8 -25 8 -14 0 -19 7 -19 25 0 23 4 25 44 25 43 0 44 0 96 80 29
44 56 80 61 80 18 0 8 -26 -31 -85 -22 -33 -40 -63 -40 -67 0 -5 63 -8 140 -8
77 0 140 3 140 8 0 4 -18 34 -40 67 -39 59 -49 85 -31 85 5 0 32 -36 61 -80
52 -80 53 -80 96 -80 40 0 44 -2 44 -25 0 -18 -5 -25 -19 -25 -11 0 -22 -3
-24 -7 -3 -5 -12 -60 -21 -123 -9 -63 -18 -127 -21 -142 l-4 -28 141 0 141 0
-6 98 c-12 202 -91 398 -206 513 -36 36 -88 76 -116 88 -65 31 -164 37 -225
15z"/>
</g>
</svg>
